<?xml version="1.0" encoding="UTF-8" standalone="no"?>
<!-- Created with Inkscape (http://www.inkscape.org/) -->

<svg
   width="219.89056mm"
   height="219.89062mm"
   viewBox="0 0 219.89056 219.89062"
   version="1.1"
   id="svg5"
   xml:space="preserve"
   inkscape:version="1.2.2 (732a01da63, 2022-12-09)"
   sodipodi:docname="portfolio-logo.svg"
   xmlns:inkscape="http://www.inkscape.org/namespaces/inkscape"
   xmlns:sodipodi="http://sodipodi.sourceforge.net/DTD/sodipodi-0.dtd"
   xmlns="http://www.w3.org/2000/svg"
   xmlns:svg="http://www.w3.org/2000/svg"><sodipodi:namedview
     id="namedview7"
     pagecolor="#ffffff"
     bordercolor="#000000"
     borderopacity="0.25"
     inkscape:showpageshadow="2"
     inkscape:pageopacity="0.0"
     inkscape:pagecheckerboard="0"
     inkscape:deskcolor="#d1d1d1"
     inkscape:document-units="mm"
     showgrid="false"
     inkscape:zoom="0.36925856"
     inkscape:cx="276.22921"
     inkscape:cy="-1496.2416"
     inkscape:window-width="1350"
     inkscape:window-height="938"
     inkscape:window-x="234"
     inkscape:window-y="94"
     inkscape:window-maximized="0"
     inkscape:current-layer="layer1" /><defs
     id="defs2" /><g
     inkscape:label="Layer 1"
     inkscape:groupmode="layer"
     id="layer1"
     transform="translate(529.39259,932.43515)"><g
       id="g528"
       inkscape:export-filename="g528.svg"
       inkscape:export-xdpi="7.3927679"
       inkscape:export-ydpi="7.3927679"><circle
         style="fill:#55ff99;stroke-width:0.738095"
         id="path524"
         cx="-419.44727"
         cy="-822.48987"
         r="109.9453" /><path
         id="path882-5-6-7"
         style="fill:#000000;stroke-width:0.264583"
         d="m -366.94847,-913.95988 c -0.63631,0 -4.43399,3.25953 -15.22232,13.06586 -2.02966,1.84491 -3.94373,3.41822 -4.25349,3.49592 -0.37958,0.0953 -1.59897,-0.42514 -3.73982,-1.59577 -1.74708,-0.95532 -3.40634,-1.73685 -3.68763,-1.73685 -0.2813,0 -3.12902,2.21938 -6.3283,4.93148 -3.19929,2.71213 -7.10043,6.00818 -8.66872,7.32462 -1.56829,1.31645 -2.90013,2.6392 -2.96003,2.93987 -0.10824,0.54302 -0.17938,2.76262 -0.66456,20.78737 -0.45656,16.96191 -0.59991,21.29675 -0.71003,21.48757 -0.0598,0.10355 -0.39313,0.0801 -0.74104,-0.0522 -1.08417,-0.41219 -3.29721,-0.4036 -3.7021,0.0145 -0.20158,0.20813 -1.46086,2.58093 -2.79828,5.27306 -1.33743,2.69214 -2.60409,5.09081 -2.81533,5.33043 -0.26541,0.3011 -0.68572,0.40409 -1.36012,0.33279 -0.53677,-0.0567 -2.52399,-0.28208 -4.41576,-0.50023 -1.89177,-0.21815 -6.35661,-0.69662 -9.92187,-1.0635 -3.56526,-0.36688 -6.89901,-0.78992 -7.40833,-0.93999 -1.03021,-0.30354 -1.36192,-0.68551 -10.27483,-11.8246 -4.71506,-5.89274 -5.43399,-6.68073 -6.09317,-6.68073 -0.63793,0 -7.24244,2.01231 -27.28825,8.3137 -6.40383,2.01304 -9.25726,3.09211 -9.53172,3.60495 -0.39155,0.7316 -0.0398,1.27187 1.02526,1.57562 1.33575,0.38094 13.2087,2.78816 15.71635,3.18636 1.66743,0.26478 2.05052,0.41348 2.05052,0.79634 0,0.25895 -0.0948,0.51064 -0.21084,0.55914 -0.48059,0.20087 -15.92874,50.56022 -15.92874,51.92602 0,0.9065 0.66614,1.31632 2.02572,1.24592 1.0425,-0.054 1.17474,-0.002 1.04386,0.41444 -0.0824,0.26199 -0.4361,1.42896 -0.786,2.59313 -0.3499,1.16417 -1.59171,5.15276 -2.75952,8.86354 -4.57212,14.52817 -4.7539,15.31403 -3.69125,15.97939 0.33583,0.21032 0.5902,0.20999 0.92604,-10e-4 0.68745,-0.43198 6.26266,-8.57955 13.93869,-20.36982 3.95214,-6.07043 5.11837,-7.48459 8.47803,-10.28154 1.69963,-1.41495 3.14834,-2.51436 3.21944,-2.44326 0.0711,0.0711 0.17695,1.54026 0.23565,3.26491 0.29754,8.73691 0.8886,21.86747 1.17047,26.00668 0.24329,3.57264 0.48786,4.09148 1.85363,3.92948 0.81346,-0.0965 1.51853,-1.32859 4.35788,-7.61814 2.22719,-4.93355 8.22769,-17.99047 9.02839,-19.64531 0.35174,-0.72697 0.64565,-0.99219 1.09915,-0.99219 0.76212,0 0.44751,0.52438 7.69463,-12.83953 3.15876,-5.82485 5.87264,-10.80546 6.03064,-11.06805 0.26406,-0.43887 0.53115,-0.33959 3.30729,1.22731 1.66101,0.9375 8.1992,4.41662 14.52934,7.73183 6.33016,3.31521 12.31305,6.44936 13.29532,6.96443 0.98225,0.51507 1.77998,1.00406 1.77198,1.08676 -0.008,0.0828 -0.99,0.79535 -2.18281,1.58336 -1.1928,0.78801 -3.21066,2.2064 -4.48397,3.15227 -2.06089,1.53091 -2.3151,1.81167 -2.3151,2.55746 0,1.04261 2.30091,4.119 23.25336,31.08958 2.65667,3.41973 5.07347,6.42606 5.37022,6.68073 0.39961,0.34293 1.00697,0.46302 2.343,0.46302 1.95624,0 2.63067,-0.35955 2.64067,-1.40767 0.003,-0.31703 -0.64882,-3.25562 -1.44849,-6.52983 -3.26219,-13.35693 -4.32708,-17.86395 -4.24109,-17.95084 0.0498,-0.0503 3.16506,2.69419 6.92258,6.09833 7.03893,6.37696 18.34034,16.46287 20.82664,18.58698 1.37745,1.17685 1.4479,1.20303 3.24476,1.20303 1.85605,0 2.47195,-0.26033 2.47116,-1.0449 -4e-4,-0.40887 -1.03221,-2.1793 -5.94692,-10.19989 -1.42671,-2.32834 -4.61593,-7.5671 -7.0869,-11.64167 -2.47098,-4.07458 -5.11845,-8.42036 -5.88337,-9.65729 -1.16076,-1.87704 -8.11963,-13.33694 -11.44374,-18.84588 l -0.91416,-1.51567 7.85172,-19.78329 c 5.93162,-14.9447 7.82218,-19.97743 7.73028,-20.57704 -0.0669,-0.43657 -2.28496,-6.0325 -4.9289,-12.43541 -2.64393,-6.40292 -5.77003,-14.02293 -6.94738,-16.93334 -1.17736,-2.91041 -2.24843,-5.42968 -2.3797,-5.59862 -0.4545,-0.58491 0.20649,-0.57058 3.3631,0.0734 5.39996,1.10162 11.60574,2.21665 12.29899,2.20865 1.30122,-0.0141 1.59453,-0.55816 2.78691,-5.16868 0.79337,-3.0677 1.07486,-4.59376 0.92191,-4.99607 -0.12112,-0.31856 -3.25698,-2.88862 -6.96857,-5.71128 l -6.74842,-5.13199 0.55759,-0.80202 c 0.69474,-1.00005 6.51751,-8.98308 11.34297,-15.55099 2.00377,-2.72731 3.77482,-5.20509 3.9362,-5.50664 0.34238,-0.63975 -0.0553,-1.30844 -0.77877,-1.30844 z m -25.68732,20.62974 2.97657,2.33009 c 1.6371,1.28178 5.23874,4.04533 8.00364,6.14123 6.51966,4.94214 8.60139,6.59738 8.58759,6.82749 -0.006,0.10294 -0.16327,0.84192 -0.34933,1.64228 -0.25731,1.1068 -0.46034,1.46778 -0.84853,1.50688 -0.59849,0.0602 -10.76759,-1.90711 -15.26108,-2.95227 l -3.10886,-0.72295 v -7.38663 z m -4.49533,1.50069 -0.0672,25.22688 c -0.0443,16.54816 -0.15872,25.24696 -0.33228,25.28476 -0.14552,0.0317 -0.74083,-0.033 -1.32292,-0.14366 -0.58208,-0.11071 -3.00918,-0.4224 -5.39347,-0.69246 l -4.33513,-0.49093 0.17983,-6.88382 c 0.0987,-3.78615 0.28951,-10.57527 0.42427,-15.08641 0.13475,-4.51114 0.26617,-9.98803 0.29197,-12.17084 0.0744,-6.29617 -0.0225,-5.95157 2.17919,-7.72511 1.04015,-0.83789 3.08147,-2.58912 4.53668,-3.89175 1.45521,-1.30264 2.91452,-2.6065 3.24269,-2.8975 z m 4.7563,19.93832 c 0.14763,0 0.2682,0.16246 0.2682,0.3607 0,0.19825 1.53448,4.09754 3.41013,8.6651 1.87565,4.56756 4.73913,11.57863 6.36292,15.58045 1.62378,4.00181 3.06587,7.48275 3.20445,7.73544 0.13859,0.25269 0.25167,0.52061 0.25167,0.59531 0,0.0748 -0.14883,0.11964 -0.33073,0.0997 -3.14031,-0.34373 -12.52275,-1.58311 -12.95632,-1.71152 -0.42344,-0.12542 -0.45615,-1.2163 -0.46715,-15.72979 -0.008,-10.37607 0.0783,-15.59543 0.25683,-15.59543 z m -71.78012,23.01564 c 0.27855,0.0164 1.04541,0.82721 2.33423,2.46704 1.16233,1.4789 2.7448,3.49418 3.5171,4.47828 0.77229,0.9841 1.24854,1.78257 1.05833,1.77457 -0.34833,-0.0149 -13.63796,-5.91337 -13.88908,-6.16449 -0.0741,-0.0741 1.38452,-0.62032 3.24115,-1.21387 1.85662,-0.59355 3.50705,-1.18823 3.66748,-1.32137 0.0184,-0.0153 0.042,-0.0219 0.0708,-0.0202 z m -10.34407,5.87665 c 0.12887,0.006 1.81933,0.7471 3.84525,1.68672 2.09126,0.96992 5.76687,2.65231 8.16797,3.73879 2.40109,1.08648 5.2586,2.39107 6.35,2.89905 1.09141,0.50796 4.90141,2.22765 8.46667,3.82147 10.15419,4.53934 10.24458,4.58995 11.73417,6.58668 2.41519,3.23745 9.35336,12.83 13.58831,18.78696 2.32829,3.275 4.42927,6.11748 4.66897,6.31641 0.23971,0.19894 0.43563,0.46605 0.43563,0.59376 0,0.34716 -0.30989,0.2773 -1.19062,-0.26872 -0.43656,-0.27065 -5.85392,-3.14273 -12.03854,-6.38204 -14.91571,-7.81238 -36.05625,-18.91122 -41.75094,-21.91958 -2.51751,-1.32995 -4.66809,-2.41846 -4.77852,-2.41846 -0.11043,0 -0.41695,-0.15839 -0.68162,-0.35192 -0.45704,-0.3342 -0.39096,-0.66989 1.32189,-6.68073 0.9919,-3.48086 1.82645,-6.36384 1.85415,-6.40684 8.6e-4,-10e-4 0.003,-0.002 0.007,-0.002 z m 59.70127,3.84989 1.22525,0.15607 c 0.67388,0.0859 3.01119,0.3951 5.19399,0.68678 2.18282,0.29168 6.70719,0.89418 10.05417,1.33893 9.39707,1.2487 19.26746,2.64367 19.36006,2.73627 0.046,0.0459 -0.21973,0.84865 -0.59015,1.78335 -2.34611,5.92011 -10.28919,26.29119 -11.23704,28.81891 -0.62753,1.67349 -1.26925,3.18208 -1.42627,3.35225 -0.15701,0.17018 -1.35733,0.86968 -2.66702,1.55443 -1.30967,0.68474 -2.69726,1.46811 -3.08353,1.74098 -0.82428,0.58229 -1.12162,0.61542 -1.4826,0.16536 -0.49798,-0.62087 -18.30617,-29.3098 -19.79362,-31.88745 -0.41013,-0.71073 -0.44163,-0.95766 -0.17673,-1.38183 0.17739,-0.28404 1.29044,-2.43985 2.47323,-4.79041 z m -16.10083,10.30273 c 1.97568,0.007 4.48973,0.0949 5.66064,0.24082 0.94465,0.11768 1.23559,0.30238 1.757,1.11569 0.34371,0.53615 3.45757,5.55853 6.91947,11.16107 3.4619,5.60254 7.98689,12.88824 10.0552,16.19023 4.24419,6.77572 4.10502,5.99848 1.38183,7.72459 -1.72691,1.09461 -1.94652,1.13913 -2.30477,0.46974 -0.27583,-0.51539 -10.55396,-14.86702 -20.34346,-28.40653 -3.23035,-4.46779 -5.87354,-8.22768 -5.87354,-8.35505 0,-0.10264 1.21099,-0.14599 2.74763,-0.14056 z m -48.57171,3.00344 c 0.20061,0.0177 0.85649,0.30506 1.58337,0.70021 2.10198,1.14272 15.4537,8.18556 20.53518,10.83189 2.31437,1.2053 4.30549,2.28858 4.42453,2.40761 0.11903,0.11904 -0.22678,0.56823 -0.76843,0.99787 -0.54165,0.42964 -5.19935,4.35573 -10.35027,8.72505 -5.1509,4.36932 -10.38967,8.78117 -11.64167,9.80405 -7.35872,6.01202 -7.69868,6.26072 -8.69921,6.35982 -1.807,0.17908 -7.15856,0.33555 -7.28121,0.21291 -0.0665,-0.0665 0.34669,-1.6339 0.91881,-3.48299 2.21896,-7.1716 6.89327,-22.47573 8.94312,-29.28193 1.18185,-3.92415 2.20734,-7.19359 2.27894,-7.26519 0.009,-0.009 0.0282,-0.0118 0.0568,-0.009 z m 30.18524,16.43206 c 0.0176,-0.002 0.0272,0.007 0.0274,0.0274 7.2e-4,0.109 -1.11647,3.20463 -2.48254,6.87917 -1.36607,3.67455 -3.12224,8.61059 -3.9026,10.96884 -0.78035,2.35825 -1.5381,4.27337 -1.68362,4.25607 -0.14552,-0.0173 -1.27661,-0.5462 -2.51354,-1.17512 -1.23693,-0.62892 -3.67434,-1.73076 -5.41673,-2.44895 -1.74238,-0.71819 -3.19295,-1.40477 -3.22305,-1.52549 -0.0301,-0.12072 1.33032,-1.41025 3.02307,-2.86545 1.69274,-1.45521 5.76213,-4.94984 9.04337,-7.76594 3.28125,-2.81611 6.23363,-5.43548 6.56033,-5.82083 0.26544,-0.31311 0.49186,-0.52117 0.56792,-0.52969 z m 57.32621,16.71475 c 0.16755,-0.002 0.73531,0.6877 1.2883,1.56889 1.77273,2.82488 8.58588,13.92512 10.63656,17.32969 1.07353,1.78229 3.65642,5.94949 5.74022,9.26042 2.0838,3.31093 4.05801,6.46628 4.38681,7.01198 0.77836,1.29183 0.44378,1.24724 -1.03973,-0.1385 -0.65849,-0.61509 -5.00427,-4.58955 -9.65729,-8.83253 -4.65302,-4.243 -9.38649,-8.5888 -10.51874,-9.65729 l -2.05827,-1.94304 -0.91571,-3.57187 c -0.50351,-1.96453 -0.9114,-3.86954 -0.9064,-4.23334 0.0102,-0.77146 2.63761,-6.66247 3.02927,-6.79183 0.005,-0.002 0.01,-0.002 0.015,-0.003 z m -8.76535,2.60449 c 0.01,-2e-5 0.0166,0.002 0.0207,0.006 0.078,0.0811 1.62975,6.41479 6.48591,26.47745 1.33002,5.49482 2.3732,10.1257 2.3182,10.29085 -0.055,0.16514 -0.74918,-0.57919 -1.54254,-1.65417 -0.79335,-1.07497 -4.29015,-5.64632 -7.77058,-10.15855 -10.57684,-13.71237 -12.32535,-16.01505 -12.32535,-16.23518 0,-0.43988 12.18508,-8.72562 12.81369,-8.7266 z m -69.25159,1.77405 0.79633,0.3483 c 0.43799,0.1915 2.48005,1.06215 4.53823,1.93528 2.05818,0.87312 3.69045,1.70657 3.62665,1.85208 -0.0637,0.14552 -1.79977,4.43178 -3.85765,9.525 -2.05788,5.09323 -3.83826,9.49855 -3.95634,9.78959 -0.20107,0.49561 -0.22398,0.48722 -0.35967,-0.13229 -0.0797,-0.3638 -0.21139,-3.69756 -0.29249,-7.40834 -0.0811,-3.71077 -0.22573,-8.80815 -0.32143,-11.32799 z m -20.24579,6.98975 3.81889,1.06557 -10.52546,17.93793 z"
         inkscape:export-filename="..\..\Desktop\path882-5-6.png"
         inkscape:export-xdpi="300"
         inkscape:export-ydpi="300" /></g></g></svg>
