<?xml version="1.0" standalone="no"?>
<!DOCTYPE svg PUBLIC "-//W3C//DTD SVG 20010904//EN"
 "http://www.w3.org/TR/2001/REC-SVG-20010904/DTD/svg10.dtd">
<svg version="1.0" xmlns="http://www.w3.org/2000/svg"
 width="376.000000pt" height="376.000000pt" viewBox="0 0 376.000000 376.000000"
 preserveAspectRatio="xMidYMid meet">
<metadata>
Created by potrace 1.14, written by Peter Selinger 2001-2017
</metadata>
<g transform="translate(0.000000,376.000000) scale(0.100000,-0.100000)"
fill="#000000" stroke="none">
<path d="M1705 3753 c-448 -50 -823 -225 -1133 -527 -310 -301 -495 -668 -556
-1102 -13 -95 -15 -430 -3 -481 3 -11 9 -43 12 -70 39 -281 192 -625 385 -863
264 -328 618 -555 1018 -654 53 -13 117 -27 142 -30 25 -4 61 -9 80 -12 65
-10 364 -12 430 -3 36 5 83 12 105 15 22 3 81 14 130 26 493 113 937 444 1192
888 122 213 184 394 238 690 14 76 13 395 -2 500 -85 615 -472 1158 -1020
1429 -188 94 -347 143 -593 186 -39 7 -378 13 -425 8z m425 -117 c296 -55 502
-132 704 -263 231 -149 450 -378 583 -611 110 -193 167 -359 219 -632 14 -74
13 -414 -2 -505 -102 -645 -522 -1168 -1124 -1400 -89 -35 -247 -79 -315 -89
-22 -4 -65 -10 -95 -16 -59 -9 -412 -7 -470 4 -243 46 -359 83 -545 176 -523
261 -876 754 -962 1345 -10 66 -10 406 0 474 27 194 82 365 177 556 173 347
448 620 800 795 100 50 302 123 372 135 18 4 51 10 73 15 22 5 65 12 95 15 30
4 56 8 58 10 6 6 395 -2 432 -9z"/>
<path d="M1779 3586 c-2 -2 -38 -6 -79 -10 -90 -7 -234 -37 -339 -70 -445
-141 -828 -477 -1027 -901 -114 -244 -165 -487 -159 -765 2 -74 9 -169 15
-210 83 -539 413 -1005 890 -1258 141 -75 322 -141 461 -167 13 -3 35 -7 49
-9 74 -15 149 -20 280 -20 130 -1 284 9 300 19 3 2 25 6 48 10 119 17 341 99
484 178 417 228 741 653 840 1101 35 160 39 198 43 356 10 476 -162 908 -495
1241 -108 108 -147 140 -268 222 -146 98 -394 209 -518 231 -13 3 -32 7 -42
10 -19 6 -44 11 -142 27 -60 10 -333 22 -341 15z m317 -111 c536 -75 1009
-420 1238 -905 59 -126 115 -298 132 -410 15 -100 19 -163 18 -290 0 -181 -8
-244 -44 -384 -38 -146 -69 -228 -138 -359 -237 -453 -697 -774 -1207 -844
-78 -11 -352 -10 -435 0 -180 24 -421 107 -585 203 -286 168 -517 420 -654
716 -35 75 -87 215 -96 261 -2 10 -6 26 -9 35 -3 9 -8 32 -11 51 -3 19 -8 37
-10 40 -18 30 -27 383 -13 491 71 522 379 970 838 1218 41 22 100 50 130 62
30 12 64 26 75 31 68 29 219 65 365 87 83 13 303 11 406 -3z"/>
<path d="M1750 3413 c-288 -36 -467 -93 -663 -211 -379 -227 -635 -585 -729
-1022 -17 -75 -21 -133 -22 -275 -1 -207 5 -271 40 -410 137 -547 573 -983
1119 -1119 143 -35 161 -37 355 -41 167 -3 242 4 400 39 150 33 402 153 540
256 403 301 632 763 624 1256 -1 82 -4 160 -7 174 -2 14 -10 59 -17 100 -67
391 -318 771 -660 997 -204 136 -389 206 -655 249 -44 7 -285 12 -325 7z m292
-73 c24 -5 64 -11 89 -14 69 -9 191 -43 277 -77 336 -133 612 -381 776 -699
50 -97 109 -249 119 -310 3 -14 10 -43 16 -65 31 -118 36 -385 10 -544 -67
-399 -297 -757 -633 -982 -515 -346 -1181 -334 -1690 29 -102 73 -255 226
-329 330 -111 155 -218 394 -247 554 -6 29 -12 63 -14 75 -24 120 -24 349 -1
473 3 14 7 37 9 51 18 112 94 316 161 433 107 188 289 387 456 498 141 94 349
188 473 214 97 21 128 26 176 31 30 3 57 7 59 9 7 6 250 2 293 -6z"/>
<path d="M622 2362 c-66 -7 -66 -2 -66 -500 -1 -405 1 -447 16 -473 10 -16 27
-30 38 -30 11 -1 62 -2 113 -3 175 -3 172 -6 169 234 l-2 178 25 5 c33 6 41
-6 145 -213 100 -200 111 -214 164 -207 50 7 80 37 80 79 0 21 -28 89 -77 184
l-76 152 60 4 c96 7 94 -1 97 280 3 256 -2 291 -42 305 -20 7 -578 11 -644 5z
m353 -292 l0 -125 -126 -1 -125 -1 2 121 c1 67 2 125 3 129 0 4 56 6 124 5
l122 -3 0 -125z"/>
<path d="M2455 2359 c-35 -6 -57 -16 -72 -34 -40 -46 -37 -54 119 -305 57 -93
64 -108 54 -130 -5 -14 -27 -61 -47 -105 -51 -111 -87 -189 -120 -263 -43 -96
-36 -127 35 -157 65 -27 82 -9 166 184 40 91 76 170 80 174 4 5 58 -73 119
-173 66 -106 121 -184 133 -189 11 -4 58 -7 103 -6 90 1 129 17 145 60 13 35
3 57 -98 226 l-92 155 95 224 c53 124 97 235 100 248 6 35 -14 69 -52 87 -45
21 -79 13 -102 -26 -10 -17 -47 -100 -82 -185 -35 -84 -68 -152 -74 -151 -5 2
-56 80 -113 173 -57 93 -109 175 -116 182 -16 16 -110 21 -181 11z"/>
<path d="M1512 2348 c-12 -6 -25 -23 -29 -37 -5 -19 -8 -729 -4 -877 1 -18 9
-42 20 -55 17 -21 26 -23 127 -24 120 -1 159 7 175 37 7 12 11 92 11 199 0
158 2 179 17 180 19 1 186 1 217 0 20 -1 20 -6 20 -185 -1 -195 2 -208 50
-226 35 -14 93 7 104 36 6 15 10 213 10 470 l0 445 -25 24 c-23 24 -30 25
-144 25 -166 0 -161 7 -161 -235 l0 -183 -127 1 -128 2 -1 175 c0 96 -4 185
-8 198 -13 38 -76 53 -124 30z"/>
</g>
</svg>
